# xmcd
#
# Track frame offsets: 
#        150
#        17828
#        45502
#        69111
#        88363
#        108293
#        125965
#        141403
#        163405
#        184777
#
# Disc length: 2707 seconds
#
# Revision: 0
# Processed by: cddbd v1.5.2PL0 Copyright (c) Steve Scherf et al.
# Submitted via: ExactAudioCopy v0.99pb2
#
DISCID=910a910a
DTITLE=Ramblin' Jack Elliot - A Stranger Here
DYEAR=2009
DGENRE=Blues
TTITLE0=Rising High Water Blues
TTITLE1=Death Don't Have No Mercy
TTITLE2=Rambler's Blues
TTITLE3=Soul Of A Man
TTITLE4=Richland Women Blues
TTITLE5=Grinnin' In Your Face
TTITLE6=The New Strangers Blues
TTITLE7=Falling Down Blues
TTITLE8=How Long Blues
TTITLE9=Please Remember Me
EXTD=
EXTT0=
EXTT1=
EXTT2=
EXTT3=
EXTT4=
EXTT5=
EXTT6=
EXTT7=
EXTT8=
EXTT9=
PLAYORDER=
